<?xml version="1.0" encoding="utf-8" ?>
<svg xmlns="http://www.w3.org/2000/svg" xmlns:xlink="http://www.w3.org/1999/xlink" width="1024" height="1024">
	<path fill="#033758" d="M412.794 270.144C417.58 269.722 422.584 270.096 427.174 271.558C432.347 273.186 436.958 276.234 440.482 280.356C447.392 288.511 451.95 300.153 456.814 309.659L482.649 360.234C488.243 346.771 495.97 334.299 505.533 323.295C533.678 290.874 575.205 273.93 617.476 271.305C665.228 268.341 719.289 282.5 755.407 314.805C783.654 340.072 799.819 375.487 803.389 412.944C804.232 421.784 802.377 432.395 805.718 440.669C807.67 445.502 810.745 450.167 813.312 454.704L831.347 486.942C835.192 493.754 839.73 500.691 842.668 507.932C843.983 511.171 844.849 514.516 845.006 518.025C845.402 525.994 842.497 533.774 836.974 539.532C827.836 549.198 816.168 550.393 803.59 550.679C803.771 555.869 803.871 561.061 803.888 566.254C804.075 600.34 799.204 634.052 773.97 659.312C749.552 683.755 723.09 685.022 690.655 684.983L651.509 684.977C655.224 691.23 658.809 697.224 658.93 704.738C659.079 711.672 656.379 718.365 651.46 723.255C647.315 727.386 642.141 729.932 636.452 731.095C626.33 733.164 610.707 731.936 599.925 731.913L536.376 731.909C525.826 731.772 515.189 730.101 505.684 725.317C498.014 721.457 491.657 715.788 486.736 708.776C480.203 699.468 475.318 688.413 470.058 678.307L440.808 621.811L420.831 583.596C417.679 577.531 413.6 571.068 411.463 564.59C394.332 596.64 378.129 629.284 361.347 661.533C354.159 675.346 347.323 690.632 338.901 703.673C330.032 717.406 317.572 726.628 301.529 730.05C290.592 732.383 279.306 731.942 268.19 731.937L235.579 731.9C223.534 731.896 210.522 733.025 198.612 731.415C193.608 730.739 188.776 729.12 184.573 726.279C178.803 722.419 174.868 716.362 173.685 709.522C172.56 703.374 173.953 697.293 176.49 691.688C179.697 684.601 183.753 677.801 187.294 670.867C197.871 650.216 208.617 629.652 219.531 609.178L298.232 458.842L362.17 336.393L378.975 304.207C382.435 297.543 385.671 290.232 389.973 284.075C395.721 275.85 403.009 271.864 412.794 270.144Z"/>
	<path fill="#FEFEFE" d="M619.386 288.714C626.101 287.921 633.517 288.361 640.265 288.84C668.501 290.846 697.441 298.009 722.132 312.127C759.563 333.53 781.723 370.658 785.892 413.179C786.906 423.526 785.062 435.501 789.178 445.165C792.088 451.999 796.042 458.553 799.591 465.074L817.529 497.859C821.292 504.728 826.076 511.812 828.123 519.39C822.84 542.332 798.004 526.913 789.057 535.69C784.047 540.605 786.075 555.037 786.156 561.56C786.529 591.511 784.932 623.4 762.596 646.064C745.959 662.945 726.512 667.131 703.625 667.189L641.534 667.124L537.371 467.411L508.427 411.277C503.398 401.451 497.938 391.682 493.473 381.59C499.306 363.251 507.728 346.853 520.489 332.335C545.724 303.625 582.189 291.108 619.386 288.714Z"/>
	<path fill="#033758" d="M732.046 438.147C735.988 438.294 739.628 439.377 742.909 441.592C748.175 445.145 751.534 451.068 752.621 457.254C753.829 464.12 752.494 471.769 748.436 477.493C744.717 482.739 739.897 484.981 733.774 486.108C729.002 486.061 724.765 485.046 720.888 482.133C715.641 478.192 712.482 471.926 711.636 465.489C710.745 458.717 712.573 451.425 716.876 446.072C720.846 441.134 725.909 438.929 732.046 438.147Z"/>
	<path fill="#3294C7" d="M414.962 287.12C416.949 287.025 418.806 287.08 420.726 287.667C424.399 288.79 426.896 291.319 428.91 294.49C433.077 301.05 436.292 308.589 439.82 315.532L463.355 362.054L546.01 521.573C523.172 521.063 500.237 521.455 477.388 521.401C462.407 521.365 447.061 520.504 432.13 521.479C429.021 521.681 425.69 522.08 422.732 523.097C418.036 524.712 413.463 527.483 410.225 531.276C403.54 539.107 396.645 555.25 391.625 564.843C376.086 594.301 360.699 623.838 345.464 653.455L330.709 681.777C327.897 687.153 325.225 692.996 321.816 698.015C319.621 701.247 316.793 703.859 313.83 706.367C310.657 708.677 307.377 710.484 303.669 711.789C299.55 713.239 295.23 713.942 290.884 714.238C276.575 715.215 261.857 714.512 247.491 714.523C232.844 714.533 217.801 715.219 203.205 714.397C200.753 714.259 197.67 714.094 195.491 712.931C192.371 711.266 191.337 708.217 190.334 705.064C190.373 704.921 190.414 704.779 190.452 704.636C192.926 695.345 198.95 686.092 203.393 677.599L224.253 637.64L311.94 470.217L373.786 352.069L392.843 315.684C396.421 308.724 399.678 301.077 403.841 294.485C406.469 290.323 410.308 288.161 414.962 287.12Z"/>
	<path fill="#3294C7" d="M431.371 539.188C451.302 538.487 471.431 539.101 491.381 539.115C512.536 539.131 533.885 538.567 555.013 539.321L619.814 662.273C623.969 670.197 639.284 696.858 640.914 703.134C641.463 705.248 640.804 708.154 639.584 709.935C637.641 712.771 634.688 713.718 631.49 714.423C611.651 715.187 591.5 714.526 571.628 714.533C557.826 714.537 542.066 715.581 528.513 714.038C522.54 713.357 516.133 711.878 511.001 708.648C506.252 705.659 502.672 701.373 499.709 696.676C494.061 687.721 489.503 677.739 484.599 668.353L456.37 614.074L437.776 578.006C433.618 570.066 423.674 554.441 422.21 546.709C421.891 545.021 422.231 543.689 423.279 542.349C425.19 539.907 428.518 539.545 431.371 539.188Z"/>
</svg>
